<svg width="332" height="90" viewBox="0 0 332 90" fill="none" xmlns="http://www.w3.org/2000/svg">
<path d="M199 2C199.99 2 200.98 2 202 2C209.689 17.8464 217.251 33.742 224.633 49.7344C227.04 54.9445 229.477 60.1395 231.93 65.3281C232.906 67.3994 233.882 69.4708 234.858 71.5423C235.491 72.8809 236.125 74.2185 236.761 75.5551C237.644 77.4106 238.52 79.2694 239.395 81.1289C240.15 82.7233 240.15 82.7233 240.921 84.3499C242 87 242 87 242 90C239.03 90 236.06 90 233 90C231.144 86.1938 229.292 82.3852 227.446 78.5742C226.817 77.2776 226.186 75.9817 225.554 74.6865C224.647 72.8266 223.745 70.9644 222.844 69.1016C222.299 67.9809 221.754 66.8602 221.193 65.7056C220 63 220 63 220 61C207.13 61.33 194.26 61.66 181 62C176.71 71.24 172.42 80.48 168 90C164.7 90 161.4 90 158 90C159.471 85.2311 161.414 80.7858 163.57 76.2969C163.924 75.5536 164.277 74.8103 164.642 74.0446C165.8 71.6115 166.962 69.1808 168.125 66.75C169.343 64.1936 170.56 61.6366 171.777 59.0795C172.609 57.3308 173.442 55.5824 174.275 53.834C177.058 47.9908 179.823 42.1397 182.574 36.2812C182.935 35.513 183.296 34.7447 183.667 33.9532C185.05 31.0085 186.431 28.0634 187.811 25.1176C191.444 17.3623 195.113 9.63234 199 2Z" fill="#414396"/>
<path d="M0 0.999999C3.3 0.999999 6.6 0.999999 10 0.999999C14.2564 10.8297 18.5086 20.6613 22.7552 30.4952C24.7809 35.1844 26.812 39.8711 28.8508 44.5546C29.7081 46.5255 30.563 48.4974 31.417 50.4697C32.4551 52.8667 33.4973 55.262 34.5439 57.6553C35.0038 58.7204 35.4637 59.7854 35.9375 60.8828C36.3384 61.8047 36.7393 62.7265 37.1523 63.6763C38 66 38 66 38 69C38.66 69 39.32 69 40 69C40.0883 68.3548 40.1766 67.7096 40.2676 67.0449C41.267 62.8898 42.9766 59.1739 44.7188 55.2812C45.093 54.4339 45.4673 53.5865 45.8529 52.7135C47.0641 49.9736 48.282 47.2368 49.5 44.5C50.7387 41.7029 51.9756 38.905 53.2123 36.1069C54.0237 34.2711 54.8357 32.4355 55.6482 30.6001C59.0447 22.9213 62.3688 15.2141 65.625 7.47461C67.899 2.10101 67.899 2.10101 69 0.999999C72 0.858221 74.9976 0.957712 78 0.999999C76.099 7.01445 73.9042 12.7897 71.332 18.5469C70.9797 19.3448 70.6274 20.1427 70.2644 20.9648C69.5089 22.6749 68.7516 24.3843 67.9926 26.093C65.974 30.6378 63.9683 35.1884 61.9609 39.7383C61.5506 40.6675 61.1402 41.5966 60.7175 42.554C55.701 53.9234 50.7832 65.3351 45.8645 76.7471C45.5427 77.4932 45.2209 78.2394 44.8894 79.0081C44.29 80.3982 43.6912 81.7886 43.093 83.1792C41.111 87.7779 41.111 87.7779 40 90C39.34 90 38.68 90 38 90C15.7229 38.7501 15.7229 38.7501 7.0264 18.4948C6.38449 16.9999 5.74197 15.5052 5.09885 14.0108C4.22156 11.9716 3.34667 9.9313 2.47266 7.89062C1.74961 6.20501 1.74961 6.20501 1.01196 4.48535C0 2 0 2 0 0.999999Z" fill="#3F4196"/>
<path d="M101 1C103.97 1 106.94 1 110 1C113.843 8.41957 117.211 15.9831 120.449 23.6836C121.197 25.4496 121.197 25.4496 121.96 27.2512C123.539 30.9787 125.114 34.7078 126.688 38.4375C128.771 43.3753 130.859 48.3111 132.949 53.2461C133.426 54.3804 133.903 55.5148 134.395 56.6835C134.839 57.7321 135.283 58.7807 135.741 59.8611C136.13 60.7836 136.519 61.706 136.92 62.6565C138.013 65.1879 138.013 65.1879 140 68C140.417 67.0363 140.833 66.0725 141.262 65.0796C150.498 43.7153 159.741 22.3543 169 1C172.3 1 175.6 1 179 1C177.591 5.46825 175.87 9.72253 173.938 13.9844C173.307 15.3893 172.677 16.7942 172.047 18.1992C171.714 18.9396 171.381 19.68 171.038 20.4429C163.415 37.3905 156.048 54.4419 148.766 71.5381C148.395 72.4076 148.024 73.2772 147.642 74.173C146.948 75.8024 146.254 77.4323 145.562 79.0628C145.253 79.7884 144.944 80.5141 144.625 81.2617C144.225 82.2047 144.225 82.2047 143.816 83.1667C142.936 85.1433 141.981 87.0718 141 89C140.01 89 139.02 89 138 89C137.728 88.365 137.456 87.7301 137.176 87.0759C134.279 80.308 131.381 73.5405 128.482 66.7733C127.373 64.1828 126.263 61.5923 125.154 59.0016C117.373 40.8194 117.373 40.8194 109.512 22.6719C109.198 21.9522 108.885 21.2326 108.561 20.4911C107.181 17.3262 105.797 14.1634 104.406 11.0034C103.942 9.94268 103.478 8.88194 103 7.78906C102.608 6.89913 102.216 6.00919 101.812 5.09229C101 3 101 3 101 1Z" fill="#3F4195"/>
<path d="M286 2C286.66 2 287.32 2 288 2C288 6.62 288 11.24 288 16C288.66 16 289.32 16 290 16C290.259 15.438 290.518 14.8759 290.785 14.2969C292.134 11.7462 293.692 9.54716 295.438 7.25C296.034 6.45078 296.631 5.65156 297.246 4.82812C297.825 4.22484 298.404 3.62156 299 3C299.99 3 300.98 3 302 3C300.897 5.87192 299.806 7.16715 297.434 9.20703C291.948 13.9778 288.859 17.4682 288.055 24.9023C287.727 30.6042 287.754 36.2953 288 42C288.527 41.5309 289.053 41.0619 289.596 40.5786C295.577 35.2913 295.577 35.2913 298.461 33.3047C302.777 30.0811 304.179 27.0613 304.945 21.8203C305.521 16.5584 305.834 11.2898 306 6C306.66 6 307.32 6 308 6C308 11.61 308 17.22 308 23C309.444 21.515 310.888 20.03 312.375 18.5C313.874 16.9578 315.409 15.4475 317 14C317.66 14 318.32 14 319 14C317.349 18.2924 314.262 20.8794 311 24C316.28 24 321.56 24 327 24C327 24.99 327 25.98 327 27C326.437 26.9873 325.874 26.9745 325.294 26.9614C315.4 26.8949 306.948 26.9958 299.516 34.1479C296.87 37.0086 294.391 39.9216 292 43C305.256 44.6509 305.256 44.6509 317.547 41.1016C319.942 38.8588 321.957 36.5605 324 34C327.542 31 327.542 31 330 31C327.8 36.6126 322.633 39.436 318 43C324.93 43.495 324.93 43.495 332 44C332 44.66 332 45.32 332 46C327.38 46.33 322.76 46.66 318 47C319.423 48.2787 320.846 49.5575 322.312 50.875C323.113 51.5943 323.914 52.3136 324.738 53.0547C327.042 55.1161 327.042 55.1161 330 57C330 57.99 330 58.98 330 60C327.128 58.8974 325.833 57.8056 323.793 55.4336C319.022 49.9476 315.532 46.8595 308.098 46.0547C302.396 45.7273 296.705 45.7542 291 46C291.469 46.5267 291.938 47.0535 292.421 47.5962C297.709 53.5772 297.709 53.5772 299.695 56.4609C302.919 60.7767 305.939 62.1787 311.18 62.9453C316.442 63.521 321.71 63.8336 327 64C327 64.66 327 65.32 327 66C321.39 65.67 315.78 65.34 310 65C311.65 66.65 313.3 68.3 315 70C316.722 71.9606 318.352 73.9751 320 76C316 76 316 76 313.859 74.25C311.906 72.1667 309.953 70.0833 308 68C308 73.28 308 78.56 308 84C307.01 84.495 307.01 84.495 306 85C306.018 84.4424 306.036 83.8848 306.054 83.3103C306.207 73.0729 305.878 64.8114 298.494 57.1584C295.428 54.3071 292.309 51.567 289 49C287.215 62.5755 287.215 62.5755 291.379 74.9922C293.24 77.1006 295.255 78.9408 297.398 80.7578C299.787 82.816 300.893 84.1064 302 87C298.786 86.7125 297.907 85.9008 295.641 83.4961C292.32 79.248 292.32 79.248 289 75C288.67 79.62 288.34 84.24 288 89C287.34 89 286.68 89 286 89C285.67 84.71 285.34 80.42 285 76C284.301 76.7941 283.603 77.5881 282.883 78.4062C281.964 79.4378 281.045 80.469 280.125 81.5C279.665 82.0246 279.205 82.5493 278.73 83.0898C277.528 84.4314 276.268 85.72 275 87C274.34 87 273.68 87 273 87C274.08 84.2664 275.074 82.9376 277.348 81.0117C282.728 76.4058 285.156 73.2029 285.879 66.1641C286.201 60.4418 286.198 54.7268 286 49C285.474 49.4691 284.948 49.9381 284.406 50.4214C278.433 55.7059 278.433 55.7059 275.504 57.6953C272.192 60.134 270.318 62.2648 269.558 66.4092C268.931 72.5947 268.879 78.7882 269 85C267.515 84.505 267.515 84.505 266 84C266.33 78.72 266.66 73.44 267 68C265.742 69.1137 264.484 70.2275 263.188 71.375C260.84 73.4527 258.616 75.2559 256 77C256 74 256 74 257.75 71.957C259.833 69.9714 261.917 67.9857 264 66C258.72 66 253.44 66 248 66C248 65.34 248 64.68 248 64C249.27 64.0296 250.539 64.0593 251.848 64.0898C261.197 63.9422 267.839 63.1949 274.771 56.4944C277.638 53.4239 280.4 50.3004 283 47C269.875 45.5845 269.875 45.5845 257.523 48.8633C255.137 51.1206 253.074 53.4575 251 56C249.061 57.5076 247.103 58.7274 245 60C245.288 56.7858 246.099 55.9066 248.504 53.6406C252.752 50.3203 252.752 50.3203 257 47C250.07 46.505 250.07 46.505 243 46C243 45.34 243 44.68 243 44C247.62 43.67 252.24 43.34 257 43C255.206 41.5769 253.411 40.1537 251.562 38.6875C246.125 34.375 246.125 34.375 245 31C247.758 32.0833 249.062 33.0746 250.988 35.3828C254.517 39.5457 257.307 42.5466 262.761 43.4648C269.518 43.8854 276.258 43.5524 283 43C277.555 35.8824 272.407 29.2091 263.172 27.625C257.79 27.0473 252.41 26.8839 247 27C247.33 26.01 247.66 25.02 248 24C253.28 24 258.56 24 264 24C261.03 21.03 258.06 18.06 255 15C255.66 14.34 256.32 13.68 257 13C261.455 17.455 261.455 17.455 266 22C266 16.72 266 11.44 266 6C266.99 6 267.98 6 269 6C268.991 7.27875 268.982 8.5575 268.973 9.875C268.65 20.503 268.65 20.503 273.062 29.6875C273.66 30.187 274.258 30.6865 274.873 31.2012C277.12 33.1012 279.177 35.1162 281.246 37.207C282.307 38.2759 282.307 38.2759 283.388 39.3665C283.92 39.9055 284.452 40.4446 285 41C285.235 37.3344 285.375 33.6708 285.5 30C285.567 28.97 285.634 27.9401 285.703 26.8789C285.859 20.854 285.859 20.854 283.271 15.5659C281.266 13.5701 279.193 11.7847 277 10C273 5.4 273 5.4 273 3C278.613 5.19953 281.436 10.3668 285 15C285.495 8.565 285.495 8.565 286 2Z" fill="#434599"/>
<path d="M85 2C87.64 2 90.28 2 93 2C93 30.71 93 59.42 93 89C90.36 89 87.72 89 85 89C85 60.29 85 31.58 85 2Z" fill="#3A3C93"/>
<path d="M200 21C202.972 23.5502 204.296 26.3777 205.918 29.9102C206.45 31.0645 206.981 32.2189 207.529 33.4082C207.801 34.0077 208.073 34.6072 208.353 35.2249C209.188 37.0632 210.033 38.8961 210.881 40.7285C215 49.7262 215 49.7262 215 52C205.1 52 195.2 52 185 52C194.772 29.9385 194.772 29.9385 200 21Z" fill="#FBFBFC"/>
<path d="M245 31C250.038 33.0844 253.539 37.0947 257.441 40.7852C260.892 43.7723 263.476 44.1293 267.887 44.3164C268.825 44.3583 269.762 44.4002 270.729 44.4434C271.705 44.4827 272.681 44.522 273.688 44.5625C275.17 44.6273 275.17 44.6273 276.682 44.6934C279.121 44.7994 281.56 44.9015 284 45C284 45.33 284 45.66 284 46C283.033 45.9747 283.033 45.9747 282.047 45.949C267.404 45.0963 267.404 45.0963 254.938 51.3125C253.603 52.8561 252.287 54.4166 251 56C249.061 57.5067 247.102 58.7278 245 60C245.288 56.7858 246.099 55.9066 248.504 53.6406C251.336 51.4271 254.168 49.2135 257 47C250.07 46.505 250.07 46.505 243 46C243 45.34 243 44.68 243 44C247.62 43.67 252.24 43.34 257 43C254.308 40.8653 254.308 40.8653 251.562 38.6875C246.125 34.375 246.125 34.375 245 31Z" fill="#353893"/>
<path d="M286 2C286.66 2 287.32 2 288 2C288 6.62 288 11.24 288 16C288.66 16 289.32 16 290 16C290.259 15.438 290.518 14.8759 290.785 14.2969C292.134 11.7462 293.692 9.54716 295.438 7.25C296.333 6.05117 296.333 6.05117 297.246 4.82812C297.825 4.22484 298.404 3.62156 299 3C299.99 3 300.98 3 302 3C300.897 5.87192 299.806 7.16715 297.434 9.20703C291.948 13.9778 288.859 17.4682 288.055 24.9023C287.727 30.6042 287.754 36.2953 288 42C287.67 42 287.34 42 287 42C287.006 41.3754 287.013 40.7509 287.019 40.1074C287.028 37.2371 286.983 34.3699 286.938 31.5C286.948 30.5177 286.959 29.5355 286.971 28.5234C286.816 21.8933 285.58 18.4108 280.834 13.7241C280.229 13.1552 279.624 12.5862 279 12C277.843 10.7185 276.695 9.42824 275.562 8.125C274.822 7.29355 274.822 7.29355 274.066 6.44531C273 5 273 5 273 3C278.613 5.19953 281.436 10.3668 285 15C285.33 10.71 285.66 6.42 286 2Z" fill="#363993"/>
<path d="M306 6C306.66 6 307.32 6 308 6C308 11.61 308 17.22 308 23C310.166 20.7725 310.166 20.7725 312.375 18.5C313.874 16.9578 315.409 15.4475 317 14C317.66 14 318.32 14 319 14C317.349 18.2924 314.262 20.8794 311 24C316.28 24 321.56 24 327 24C327 24.99 327 25.98 327 27C319.667 27 312.333 27 305 27C305.33 20.07 305.66 13.14 306 6Z" fill="#343792"/>
<path d="M289 46C294.218 50.3106 298.82 54.9143 303.375 59.9258C306.591 62.4671 308.964 62.7379 313 63C313 63.33 313 63.66 313 64C310.69 64 308.38 64 306 64C305.67 64.66 305.34 65.32 305 66C304.611 65.5385 304.221 65.077 303.82 64.6016C298.826 58.7786 293.472 53.3729 288 48C288.33 47.34 288.66 46.68 289 46Z" fill="#393C94"/>
<path d="M269 26C275.033 30.984 280.518 36.4192 286 42C285.01 42.33 284.02 42.66 283 43C278.05 38.05 273.1 33.1 268 28C268.33 27.34 268.66 26.68 269 26Z" fill="#3A3C94"/>
<path d="M319 14C317.349 18.2924 314.262 20.8794 311 24C313.97 24.495 313.97 24.495 317 25C317 25.33 317 25.66 317 26C314.36 26 311.72 26 309 26C308.67 25.01 308.34 24.02 308 23C309.452 21.494 310.912 19.9954 312.375 18.5C313.593 17.247 313.593 17.247 314.836 15.9688C317 14 317 14 319 14Z" fill="#373A94"/>
<path d="M266 6C266.99 6 267.98 6 269 6C269 11.94 269 17.88 269 24C266.912 19.8233 266.63 17.3479 266.375 12.75C266.3 11.4867 266.225 10.2234 266.148 8.92188C266.099 7.95766 266.05 6.99344 266 6Z" fill="#3B3E95"/>
<path d="M299 3C299.99 3 300.98 3 302 3C300.484 6.47775 298.423 8.9558 295.875 11.75C295.151 12.5492 294.426 13.3484 293.68 14.1719C293.125 14.7752 292.571 15.3784 292 16C291.34 15.34 290.68 14.68 290 14C291.426 12.158 292.866 10.3266 294.312 8.5C295.113 7.47906 295.914 6.45812 296.738 5.40625C297.485 4.61219 298.231 3.81813 299 3Z" fill="#444699"/>
<path d="M309 68C311.913 68.0857 313.568 68.5791 315.668 70.625C317.161 72.3839 318.604 74.1631 320 76C316 76 316 76 314.078 74.5039C313.475 73.8632 312.872 73.2226 312.25 72.5625C311.636 71.9244 311.023 71.2863 310.391 70.6289C309 69 309 69 309 68Z" fill="#595BA3"/>
<path d="M256 48C256.66 48.33 257.32 48.66 258 49C253.945 53.2708 250.037 56.9288 245 60C245.324 56.9362 245.989 56.0103 248.285 53.8594C249.202 53.1633 250.118 52.4672 251.062 51.75C251.982 51.0436 252.901 50.3372 253.848 49.6094C254.558 49.0783 255.268 48.5472 256 48Z" fill="#3E4197"/>
<path d="M256 13C257.106 13.9359 258.209 14.8738 259.312 15.8125C259.927 16.3346 260.542 16.8566 261.176 17.3945C264.52 20.3373 264.52 20.3373 266 22C266 22.66 266 23.32 266 24C262.785 22.5916 260.678 20.8966 258.25 18.375C257.636 17.7434 257.023 17.1117 256.391 16.4609C255.932 15.9788 255.473 15.4967 255 15C255.33 14.34 255.66 13.68 256 13Z" fill="#3D3F95"/>
<path d="M273 3C276.444 4.44782 278.361 6.27695 280.75 9.125C281.364 9.84945 281.977 10.5739 282.609 11.3203C283.298 12.1518 283.298 12.1518 284 13C283.34 13.66 282.68 14.32 282 15C280.494 13.3805 278.995 11.7542 277.5 10.125C276.665 9.22008 275.829 8.31516 274.969 7.38281C273 5 273 5 273 3Z" fill="#424498"/>
<path d="M267 20C268.461 22.6474 269 23.8945 269 27C268 28 268 28 266.152 28.0977C264.102 28.0651 262.051 28.0326 260 28C262 25 262 25 264.062 24C266.353 23.103 266.353 23.103 267 20Z" fill="#6B6CAC"/>
<path d="M276 54C276.99 54.33 277.98 54.66 279 55C276.03 57.97 273.06 60.94 270 64C269.67 63.01 269.34 62.02 269 61C271.31 58.69 273.62 56.38 276 54Z" fill="#3C3E95"/>
<path d="M315 42C318.034 45.0337 320 47.6376 320 52C318.02 50.35 316.04 48.7 314 47C314.33 45.35 314.66 43.7 315 42Z" fill="#4F519E"/>
<path d="M264 68C262.417 72.2743 259.494 74.2653 256 77C256 74 256 74 257.242 72.3945C258.05 71.6114 258.05 71.6114 258.875 70.8125C259.409 70.2827 259.942 69.7529 260.492 69.207C262 68 262 68 264 68Z" fill="#3D3F95"/>
<path d="M268 62C268.33 62 268.66 62 269 62C268.67 64.64 268.34 67.28 268 70C267.67 69.34 267.34 68.68 267 68C266.01 68.33 265.02 68.66 264 69C263.67 67.35 263.34 65.7 263 64C264.32 64 265.64 64 267 64C267.33 63.34 267.66 62.68 268 62Z" fill="#5658A1"/>
<path d="M101 1C103.97 1 106.94 1 110 1C110.33 2.32 110.66 3.64 111 5C110.67 4.34 110.34 3.68 110 3C107.36 3.33 104.72 3.66 102 4C101.67 3.01 101.34 2.02 101 1Z" fill="#5658A1"/>
<path d="M245 31C248.366 32.4425 250.51 34.3326 253 37C252.67 37.66 252.34 38.32 252 39C250.827 38.0488 249.662 37.0888 248.5 36.125C247.85 35.5913 247.201 35.0577 246.531 34.5078C246.026 34.0102 245.521 33.5127 245 33C245 32.34 245 31.68 245 31Z" fill="#353792"/>
<path d="M266 79C266.99 79 267.98 79 269 79C269 80.98 269 82.96 269 85C268.01 84.67 267.02 84.34 266 84C266 82.35 266 80.7 266 79Z" fill="#6162A7"/>
<path d="M327 24C327 24.99 327 25.98 327 27C325.02 27 323.04 27 321 27C320.67 26.34 320.34 25.68 320 25C323 24 323 24 327 24Z" fill="#4F519E"/>
<path d="M310 21C310.66 21 311.32 21 312 21C311.67 21.99 311.34 22.98 311 24C313.97 24.495 313.97 24.495 317 25C317 25.33 317 25.66 317 26C314.36 26 311.72 26 309 26C308.67 25.01 308.34 24.02 308 23C308.66 22.34 309.32 21.68 310 21Z" fill="#585AA3"/>
</svg>
